# xmcd
#
# Track frame offsets: 
#        150
#        4616
#        16476
#        26794
#        32140
#        45859
#        57110
#        71322
#        82353
#        87074
#        100523
#        112530
#        120298
#        132182
#        146103
#        159205
#        176638
#        191630
#        196206
#        215493
#
# Disc length: 4428 seconds
#
# Revision: 1
# Processed by: cddbd v1.5.2PL0 Copyright (c) Steve Scherf et al.
# Submitted via: ExactAudioCopy v1.3
#
DISCID=f8114a14
DTITLE=Pyhimys - Tulva
DYEAR=2008
DGENRE=Hip hop
TTITLE0=Tulva
TTITLE1=Ohi
TTITLE2=Uupuu
TTITLE3=Eio
TTITLE4=Jano
TTITLE5=Lume
TTITLE6=Juoru
TTITLE7=Pulkasta
TTITLE8=Potku
TTITLE9=Klosetti
TTITLE10=Taigaa
TTITLE11=Vimma
TTITLE12=Jäin
TTITLE13=Nöfnöf
TTITLE14=Kuolio
TTITLE15=Tora
TTITLE16=Uuras
TTITLE17=Eikä
TTITLE18=Outro
TTITLE19=Data track
EXTD=
EXTT0=
EXTT1=
EXTT2=
EXTT3=
EXTT4=
EXTT5=
EXTT6=
EXTT7=
EXTT8=
EXTT9=
EXTT10=
EXTT11=
EXTT12=
EXTT13=
EXTT14=
EXTT15=
EXTT16=
EXTT17=
EXTT18=
EXTT19=
PLAYORDER=
